<svg xmlns:xlink="http://www.w3.org/1999/xlink" xmlns="http://www.w3.org/2000/svg" data-v-2dc54a20="" class="grid-bg w-full h-full" viewBox="0 0 772 880" fill="none" data-grid-size="64.33333333333333" width="772"  height="880" ><g stroke="#8E48FF" data-v-2dc54a20="" fill="none"><line x1="0.5" y1="0" x2="0.5" y2="880" data-v-2dc54a20="" stroke="#8E48FF" fill="none"></line><line x1="64.5" y1="0" x2="64.5" y2="880" data-v-2dc54a20="" stroke="#8E48FF" fill="none"></line><line x1="129.5" y1="0" x2="129.5" y2="880" data-v-2dc54a20="" stroke="#8E48FF" fill="none"></line><line x1="193.5" y1="0" x2="193.5" y2="880" data-v-2dc54a20="" stroke="#8E48FF" fill="none"></line><line x1="257.5" y1="0" x2="257.5" y2="880" data-v-2dc54a20="" stroke="#8E48FF" fill="none"></line><line x1="322.5" y1="0" x2="322.5" y2="880" data-v-2dc54a20="" stroke="#8E48FF" fill="none"></line><line x1="386.5" y1="0" x2="386.5" y2="880" data-v-2dc54a20="" stroke="#8E48FF" fill="none"></line><line x1="450.5" y1="0" x2="450.5" y2="880" data-v-2dc54a20="" stroke="#8E48FF" fill="none"></line><line x1="515.5" y1="0" x2="515.5" y2="880" data-v-2dc54a20="" stroke="#8E48FF" fill="none"></line><line x1="579.5" y1="0" x2="579.5" y2="880" data-v-2dc54a20="" stroke="#8E48FF" fill="none"></line><line x1="643.5" y1="0" x2="643.5" y2="880" data-v-2dc54a20="" stroke="#8E48FF" fill="none"></line><line x1="708.5" y1="0" x2="708.5" y2="880" data-v-2dc54a20="" stroke="#8E48FF" fill="none"></line><line x1="0" y1="43.5" x2="772" y2="43.5" data-v-2dc54a20="" stroke="#8E48FF" fill="none"></line><line x1="0" y1="108.5" x2="772" y2="108.5" data-v-2dc54a20="" stroke="#8E48FF" fill="none"></line><line x1="0" y1="172.5" x2="772" y2="172.5" data-v-2dc54a20="" stroke="#8E48FF" fill="none"></line><line x1="0" y1="236.5" x2="772" y2="236.5" data-v-2dc54a20="" stroke="#8E48FF" fill="none"></line><line x1="0" y1="301.5" x2="772" y2="301.5" data-v-2dc54a20="" stroke="#8E48FF" fill="none"></line><line x1="0" y1="365.5" x2="772" y2="365.5" data-v-2dc54a20="" stroke="#8E48FF" fill="none"></line><line x1="0" y1="429.5" x2="772" y2="429.5" data-v-2dc54a20="" stroke="#8E48FF" fill="none"></line><line x1="0" y1="494.5" x2="772" y2="494.5" data-v-2dc54a20="" stroke="#8E48FF" fill="none"></line><line x1="0" y1="558.5" x2="772" y2="558.5" data-v-2dc54a20="" stroke="#8E48FF" fill="none"></line><line x1="0" y1="622.5" x2="772" y2="622.5" data-v-2dc54a20="" stroke="#8E48FF" fill="none"></line><line x1="0" y1="687.5" x2="772" y2="687.5" data-v-2dc54a20="" stroke="#8E48FF" fill="none"></line><line x1="0" y1="751.5" x2="772" y2="751.5" data-v-2dc54a20="" stroke="#8E48FF" fill="none"></line><line x1="0" y1="815.5" x2="772" y2="815.5" data-v-2dc54a20="" stroke="#8E48FF" fill="none"></line><line x1="0" y1="880.5" x2="772" y2="880.5" data-v-2dc54a20="" stroke="#8E48FF" fill="none"></line><line x1="0" y1="944.5" x2="772" y2="944.5" data-v-2dc54a20="" stroke="#8E48FF" fill="none"></line></g></svg>