<?xml version="1.0" encoding="UTF-8"?>
<svg id="Layer_2" data-name="Layer 2" xmlns="http://www.w3.org/2000/svg" viewBox="0 0 613.5 149.24">
  <defs>
    <style>
      .cls-1 {
        fill: #fff;
      }
    </style>
  </defs>
  <g id="Layer_1-2" data-name="Layer 1">
    <g>
      <polygon class="cls-1" points="79.02 76.66 158.05 58.92 158.05 6.86 102.53 6.86 79.02 76.66"/>
      <polygon class="cls-1" points="0 6.86 0 58.92 79.02 76.66 55.52 6.86 0 6.86"/>
      <polygon class="cls-1" points="0 146.45 55.52 146.45 79.02 76.66 0 94.39 0 146.45"/>
      <polygon class="cls-1" points="158.05 146.45 158.05 94.39 79.02 76.66 102.53 146.45 158.05 146.45"/>
      <polygon class="cls-1" points="282.08 41.36 332.14 41.36 338.12 6.86 252.53 6.86 227.84 146.45 263.48 146.45 271.95 98.59 320.94 98.59 326.92 64.09 278.06 64.09 282.08 41.36"/>
      <polygon class="cls-1" points="355.41 .87 341.15 82.4 329.94 146.45 362.95 146.45 374.05 83.01 388.57 0 355.41 .87"/>
      <path class="cls-1" d="M462.84,46.74l-9.43,53.3v-.25c-1.07,5.98-3.31,10.5-6.71,13.56-3.41,3.06-7.64,4.59-12.72,4.59-4.54,0-7.94-1.3-10.21-3.89-2.27-2.59-3-6.55-2.2-11.88l9.77-55.42h-33.01l-10.52,59.63c-2.26,13.56-.5,24.09,5.28,31.6,5.78,7.51,14.05,11.26,24.81,11.26,11.82,0,21.52-4.34,29.1-13.02l-1.81,10.23h33.01l17.64-99.71h-33.01Z"/>
      <polygon class="cls-1" points="613.5 46.74 575.55 46.74 554.86 70.28 541.73 46.74 506.82 46.74 533.5 94.57 487.87 146.45 525.82 146.45 548.23 120.97 562.44 146.45 597.35 146.45 569.58 96.68 613.5 46.74"/>
    </g>
  </g>
</svg>